<svg xmlns="http://www.w3.org/2000/svg" height="182.217" width="712.224"><path d="M156.489 79.148c-1.414 0-2.129.187-2.551.669-.387.441-.53 1.114-.53 2.485a28.267 28.267 0 00-.037 2.588c.024.964.037 1.906.037 2.823v3.217c0 1.603-.014 3.206-.037 4.81a335.62 335.62 0 01-.109 4.808c-.001 1.609.939 2.597 2.514 2.675.582.056 1.214.085 1.828.085 1.543 0 3.057-.187 4.498-.557 2.031-.52 3.981-1.468 5.796-2.816a16.053 16.053 0 002.37-2.211c.747-.863 1.27-1.905 1.556-3.1a13.44 13.44 0 00.354-4.45 19.909 19.909 0 00-.889-4.336 10.585 10.585 0 00-1.818-3.119c-.795-.936-1.823-1.668-3.057-2.173a14.972 14.972 0 00-5.067-1.25 80.253 80.253 0 00-4.858-.148m-4.708 33.906c-1.089 0-2.2-.018-3.301-.052a45.37 45.37 0 01-3.637-.143c-1.226-.1-2.473-.15-3.709-.15l-.058.001a1.898 1.898 0 01-.004-.137c0-.249-.017-.483-.048-.702a2.661 2.661 0 01-.026-.394c0-3.459.012-6.905.037-10.339.024-3.439.037-6.89.037-10.354.048-2.779.072-5.093.072-7.056V71.847c0-.989.023-1.756.07-2.28.029-.348.111-.513.154-.557.033-.033.17-.143.573-.198.503-.068 1.257-.127 2.244-.174l.072.001c.516 0 1.569-.012 3.11-.036a351.54 351.54 0 015.246-.037c1.859 0 3.718.025 5.527.073 1.763.048 3.139.119 4.089.214 1.179.099 2.342.209 3.505.329 1.076.113 2.148.352 3.187.712.973.325 1.936.743 2.874 1.246a19.08 19.08 0 012.66 1.727l.065.047c1.334.89 2.523 2.104 3.534 3.608a32.014 32.014 0 012.685 4.839c.73 1.651 1.316 3.227 1.741 4.687.427 1.473.714 2.594.852 3.331.592 3.288.389 6.314-.607 8.989-1.014 2.718-2.68 5.296-4.952 7.662-1.569 1.614-3.302 2.95-5.147 3.965-1.824 1.003-3.887 1.674-6.13 1.994-3.032.433-6.063.737-9.01.905-1.875.106-3.795.16-5.705.16M12.116 83.726a29.328 29.328 0 00-.072 2.013v2.998c0 1.45.928 2.35 2.423 2.35h.055l.055-.005a38.659 38.659 0 012.808-.178 39.427 39.427 0 002.969-.188 12.465 12.465 0 003.144-.889c1.039-.45 1.987-1.128 2.818-2.015a5.514 5.514 0 001.337-2.653c.2-.976.2-1.952-.001-2.903a6.15 6.15 0 00-1.205-2.581 4.535 4.535 0 00-2.408-1.587c-2.911-.727-5.792-1.094-8.581-1.094-.495 0-.989.012-1.481.034l-.155.008-.147.049c-.362.122-.688.375-.997.774-.313.4-.474.786-.487 1.175a34.446 34.446 0 00-.075 2.391zm17.121 29.568c-.374 0-.499-.064-.5-.064-.079-.066-.243-.233-.46-.583a340.153 340.153 0 01-2.992-5.664 158.443 158.443 0 00-3.13-5.78 17.787 17.787 0 00-.625-1.015l-.557-.837c-.42-.756-1.264-1.631-2.923-1.631-.475 0-.921-.032-1.326-.096a10.796 10.796 0 00-1.672-.123 5.455 5.455 0 00-.397-.013c-.848 0-1.444.165-1.877.519-.724.591-.808 1.669-.808 2.429l.294 11.435c.038.566-.024.779-.04.824l-.001-.001c-.017 0-.17.098-.57.19l-.082.019-.08.031a1.08 1.08 0 01-.398.068h-.81c-1.281 0-2.526.011-3.734.036-1.192.024-2.422.037-3.687.037-.365 0-.708-.012-1.026-.034a22.885 22.885 0 01-1.045-.104c-.353-.041-.453-.136-.514-.482a25.289 25.289 0 00-.184-1.206A5.835 5.835 0 010 110.233c.048-1.946.074-3.923.074-5.849 0-1.941.048-3.891.144-5.794.05-1.893.075-3.736.075-5.502V87.64a278.07 278.07 0 00-.001-8.902 539.62 539.62 0 01-.072-8.866c0-.685.066-1.023.109-1.171.127-.031.388-.072.871-.072.138 0 .283.003.438.01l6.221.001c1.18-.049 2.167-.099 3.005-.148a85.827 85.827 0 012.534-.108c.281-.008.553-.012.814-.012.514 0 .992.015 1.421.046 2.648.099 5.278.246 7.855.438 2.483.186 4.967.775 7.382 1.751a15.741 15.741 0 013.194 1.802 9.74 9.74 0 012.362 2.529c1.051 1.554 1.784 3.191 2.19 4.881.41 1.705.548 3.407.412 5.062a17.164 17.164 0 01-1.099 4.808 16.38 16.38 0 01-2.328 4.145c-.393.47-.913.926-1.523 1.325-.705.463-1.397.911-2.076 1.347-.619.387-1.002.829-1.156 1.343-.169.566-.042 1.191.378 1.859.815 1.392 1.659 2.8 2.517 4.196.853 1.39 1.72 2.793 2.598 4.208.328.516.731 1.229 1.205 2.127.501.953.947 1.699 1.362 2.276.179.33.134.546.057.73l-.009.024a4.806 4.806 0 01-.471.025 50.219 50.219 0 00-4.675-.072c-1.504.048-3.042.072-4.571.072M65.934 82.73c-.736 0-1.307.46-1.421 1.145l-.031.062-.034.125a991.872 991.872 0 00-1.61 4.723 1213.42 1213.42 0 01-1.607 4.71 32.46 32.46 0 00-.535 1.719c-.195.733-.109 1.326.257 1.764.338.408.871.617 1.581.617h1.614l.042-.003c.627-.048 1.145-.084 1.556-.11l1.307-.071c.484-.026.879-.064 1.204-.116.864-.069 1.325-.462 1.561-.783.244-.333.487-.921.261-1.828-.386-1.687-.789-3.42-1.202-5.177-.414-1.753-.816-3.48-1.205-5.184l-.012-.055-.018-.053a3.907 3.907 0 00-.306-.667 1.583 1.583 0 00-1.402-.818m15.632 30.428c-.735 0-1.47-.015-2.205-.046a52.557 52.557 0 00-5.301.038 2.727 2.727 0 01-.424-.03 7.026 7.026 0 01-.168-.969 30.88 30.88 0 00-1.195-6.575c-.283-1.298-1.159-1.571-1.526-1.628a6.92 6.92 0 00-1.011-.087 98.653 98.653 0 00-5.294.001l-5.195.146c-.661 0-1.218.208-1.627.617-.329.329-.571.761-.72 1.283a56.14 56.14 0 01-.903 3.107c-.319.98-.633 2.059-.932 3.205-.091.334-.177.505-.225.58-.079.022-.26.055-.605.055h-5.923c-1.258 0-2.406-.011-3.446-.035-.9-.021-1.437-.034-1.612-.037a1.483 1.483 0 01-.264-.046c.009-.065.03-.166.08-.313a225.756 225.756 0 012.992-8.682c1.04-3.315 2.064-6.568 3.087-9.809a922.492 922.492 0 013.14-9.75l1.251-4.119c.486-1.608.962-3.165 1.424-4.676.462-1.506.863-2.794 1.204-3.864.421-1.326.518-1.588.539-1.637l.042-.084.009-.052c.152-.507.267-.915.343-1.22a.668.668 0 01.023-.076c.042-.012.112-.03.22-.044.218-.029.646-.063 1.424-.063.582 0 1.563.012 2.943.035 1.394.026 2.863.037 4.406.037h7.494c.213-.009.355-.014.486-.014.298 0 .472.022.563.04.058.111.166.363.287.875.377 1.559.732 3.122 1.055 4.654a152 152 0 001.067 4.713c.827 3.506 1.656 6.97 2.486 10.383.828 3.412 1.656 6.847 2.485 10.307.391 1.565.767 3.13 1.132 4.707.367 1.591.745 3.169 1.137 4.735a193.965 193.965 0 00.878 3.656c.094.363.051.493.047.503-.003 0-.065.051-.255.095h-.4a54.864 54.864 0 01-3.013.084M95.195 112.638c.816 0 1.578.025 2.329.072.752.05 1.513.099 2.288.147.102.004.22.006.332.006.741 0 .984-.12 1.016-.138-.007-.008.168-.326.168-1.395-.096-2.261-.17-4.63-.219-6.997l-.073-3.509-.073-3.51a62.698 62.698 0 01-.073-3.423v-3.4c0-.221.019-.51.145-.784.066-.187.176-.362.325-.511l.568-.568.625.318c.513.016.948.262 1.191.671.202.302.575.866 1.119 1.689.561.854 1.233 1.862 2.015 3.028a428.788 428.788 0 012.54 3.851 640.387 640.387 0 002.637 4.015 94.881 94.881 0 002.432 3.504c.767 1.051 1.416 1.89 1.931 2.496 1.016 1.3 2.211 2.584 3.581 3.854.19.188.383.323.62.441.233.117.379.141.462.141 2.114.097 4.2.146 6.251.146h6.179c.108 0 .198-.003.271-.007a5.2 5.2 0 00.011-.348 204.43 204.43 0 01-.073-5.521c0-1.789-.049-3.627-.145-5.462a966.109 966.109 0 01-.257-8.144 862.803 862.803 0 00-.256-8.033c-.001-1.07.011-2.247.036-3.572l.009-.485.065-3.535c.023-1.364.047-2.705.072-4.022.024-1.308.037-2.471.037-3.489 0-.951-.098-1.368-.15-1.522-.153-.051-.569-.149-1.521-.149a59 59 0 00-4.13-.001 125.28 125.28 0 00-4.13.218c-.603.029-.913.096-1.058.14-.021.144-.066.517-.032 1.264.048 1.632.085 3.392.11 5.3.024 1.897.061 3.806.111 5.726.047 1.932.084 3.849.109 5.754.024 1.895.061 3.643.109 5.245 0 .589-.024 1.235-.074 2.007-.036.529-.144 2.132-1.471 2.132-.639 0-1.193-.444-1.829-1.111a46.396 46.396 0 01-1.279-1.386 71.146 71.146 0 01-4.517-5.838 279.277 279.277 0 01-4.274-6.313 250.452 250.452 0 01-4.091-6.425 133.931 133.931 0 00-3.93-6.019c-.237-.301-.486-.556-.706-.708-.002-.002-.113-.071-.46-.071-.077 0-.158.003-.242.009a58.686 58.686 0 01-3.421.102c-.563 0-1.123-.009-1.678-.026a86.657 86.657 0 00-2.486-.035c-.858 0-1.742.012-2.653.035l-.125.003-.032-.006v1.529c0 .835-.013 1.877-.037 3.129a177.793 177.793 0 00-.036 3.598c0 1.167.024 2.608.072 4.282.001 1.76-.024 3.542-.073 5.326a94.015 94.015 0 000 5.203c.097 3.266.121 6.579.074 9.846-.049 3.221 0 6.52.145 9.806.001.513-.03.895-.094 1.216-.001.002-.018.104.038.363.692-.115 1.4-.169 2.153-.169.264 0 .534.006.812.019.504.024.974.036 1.412.036.43 0 .828-.012 1.194-.035zM212.004 77.904c-2.383 0-4.43.495-6.083 1.47-1.617.954-2.939 2.156-3.928 3.574a15.393 15.393 0 00-2.166 4.528c-.462 1.594-.723 3.085-.775 4.434-.058.99.173 2.097.709 3.363.512 1.213 1.298 2.383 2.338 3.476 1.036 1.089 2.318 2.025 3.81 2.783 1.54.783 3.295 1.18 5.218 1.18 2.135 0 4.017-.455 5.593-1.351 1.525-.868 2.823-1.953 3.857-3.225a13.396 13.396 0 002.31-4.145c.5-1.473.754-2.871.754-4.158 0-.604-.013-1.088-.04-1.437a5.946 5.946 0 00-.14-.95 15.922 15.922 0 00-.155-.584 5.061 5.061 0 01-.119-.571c-.188-.947-.651-1.874-1.422-2.874a15.346 15.346 0 00-2.6-2.604 15.902 15.902 0 00-3.381-2.045c-1.286-.574-2.557-.864-3.78-.864m.293 35.755c-2.894 0-5.499-.364-7.742-1.081-2.255-.72-4.251-1.658-5.936-2.789-1.684-1.131-3.131-2.413-4.3-3.812-1.195-1.428-2.188-2.847-2.954-4.218-.766-1.367-1.339-2.638-1.703-3.781-.361-1.128-.566-2.024-.609-2.663a208.13 208.13 0 00-.331-3.976 14.003 14.003 0 01.17-3.725c.462-2.258 1.254-4.527 2.35-6.718a24.18 24.18 0 014.195-5.944c1.691-1.759 3.725-3.275 6.045-4.504 2.304-1.221 4.926-2.004 7.795-2.328a16.953 16.953 0 015.07.066c1.696.278 3.386.727 5.023 1.335 2.751 1.054 12.234 5.186 13.537 16.032.626 5.209.063 8.788-.411 10.829a25.333 25.333 0 01-2.066 5.71 22.486 22.486 0 01-3.415 4.947c-1.353 1.491-3.021 2.808-4.958 3.915a21.07 21.07 0 01-4.727 2.016 18.346 18.346 0 01-5.033.689M290.845 112.929h2.779c.985 0 1.933.012 2.845.036.888.024 1.549.036 1.981.036.245.01.424.015.586.015.146 0 .264-.004.36-.009.012-.215.016-.546-.005-1.045a103.263 103.263 0 01-.111-6.166c.024-1.951.012-4.017-.037-6.139a1433.972 1433.972 0 01-.292-28.834c0-.852-.012-1.503-.035-1.953-.013-.238-.06-.318-.061-.319h-.001c-.012 0-.112-.042-.309-.064-.401-.044-1.001-.066-1.777-.066-.096 0-.572.012-1.432.036-.885.025-1.859.037-2.919.037h-2.998c-1.351 0-1.804-.048-2.048-.089a3.347 3.347 0 00-.268-.012c-.5 0-.687.167-.748.221-.372.333-.727.793-1.055 1.368a156.862 156.862 0 01-2.365 4.549 169.897 169.897 0 01-2.539 4.526 90.873 90.873 0 01-3.068 4.99 106.212 106.212 0 00-3.003 4.812 272.625 272.625 0 00-1.975 3.293 307.203 307.203 0 01-1.983 3.302c-.414.727-.965 1.507-1.789 1.587l-.053.005-.081.001c-.883 0-1.449-.781-1.885-1.546l-5.275-9.67a879.222 879.222 0 00-4.418-7.997 279.566 279.566 0 01-4.367-8.111c-.277-.48-.584-.843-.889-1.036-.165-.103-.407-.157-.718-.157-.132 0-.271.01-.418.028l-.068.009H240.466a4.524 4.524 0 00-.58.07c-.01.137-.014.346.005.658.002 8.995.075 18.042.22 26.956a917.27 917.27 0 01-.036 8.325c-.025 2.714-.013 5.497.036 8.271l.001.018c1.046.043 2.036.064 2.986.064h5.631c.73 0 1.498-.047 2.284-.139.252-.032.439-.062.575-.089a5.609 5.609 0 00-.015-.342l-.44-9.605c-.145-3.134-.29-6.294-.434-9.477-.052-.237-.086-.521-.015-.808.008-.081.009-.204.009-.368 0-1.487 1.105-1.529 1.231-1.529h.307l.321.177c.287.174.503.392.646.651a29.93 29.93 0 011.347 2.398c1.46 2.873 2.899 5.727 4.314 8.555a358.307 358.307 0 014.181 8.656c.434.922.754 1.394.947 1.627.002.002.246.219 1.267.219h6.361c.531 0 .678-.113.679-.114.231-.231.449-.509.649-.828 1.831-3.183 3.697-6.413 5.574-9.656 1.877-3.242 3.742-6.449 5.596-9.619.202-.353.411-.694.62-1.007.2-.299.426-.626.678-.979l.053-.074.065-.065a1.06 1.06 0 00.077-.098c.25-.331.615-.519 1.007-.519.336 0 .661.14.917.394.365.368.573.805.613 1.276.055.245.081.555.081.973.048 3.351.084 6.668.109 9.936.024 3.264.06 6.575.11 9.937 0 .245.013.414.029.526.046.003.103.005.169.005.093 0 .193-.004.299-.011zM325.24 104.592c.521.668 1.022 1.497 1.432 1.939 6.014 6.47 15.587 6.791 16.046 6.791 1.837 0 3.724-.152 5.609-.453 2.187-.364 4.199-1.08 5.973-2.127a21.545 21.545 0 004.938-4.034 35.204 35.204 0 003.336-4.188 18.515 18.515 0 002.277-4.694 28.36 28.36 0 001.097-4.205 12.68 12.68 0 00.032-4.203 6.256 6.256 0 00-.157-.666 7.275 7.275 0 00-.789-.081 127.53 127.53 0 00-4.175-.07s-8.814-.159-9.968-.184a165.19 165.19 0 00-3.466-.034c-.008.05-.016.128-.013.242.099.623.15 1.25.15 1.866 0 .559.023 1.146.07 1.742.049 1.093.213 1.398.235 1.435l.002-.001c.021 0 .325.165 1.318.255.339.047.605.068.85.068.337 0 .698.027 1.104.084l.06.008.058.015a.698.698 0 00.166.015c.049 0 .1-.002.154-.007.306-.028.595-.042.871-.042.435 0 .828.098 1.168.29.321.186.726.55.869 1.255.148.597.05 1.301-.305 2.049a15.09 15.09 0 01-.793 1.464 8.63 8.63 0 01-2.006 2.038 7.307 7.307 0 01-2.805 1.513c-.93.259-1.902.443-2.886.546-.55.067-1.114.103-1.658.103-1.542 0-2.999-.283-4.332-.841-1.822-.76-3.374-2.048-4.612-3.825-1.319-1.899-2.109-3.888-2.348-5.914-.236-1.991-.089-3.922.438-5.739a13.803 13.803 0 012.583-4.926c1.195-1.46 2.588-2.581 4.141-3.331a13.64 13.64 0 012.523-.883 22.28 22.28 0 012.581-.462s3.465-.318 3.629-.318c1.04 0 2.576.143 3.537.754.17-.059 6.096-6.677 7.308-7.751-1.026-.495-5.537-2.995-14.39-2.995-5.098 0-13.292 2.109-18.893 9.932-2.205 3.66-3.632 7.474-4.242 11.338-.601 3.822-.175 7.86 1.268 12.003.232.742.534 1.448.912 2.134.4.734.768 1.432 1.103 2.095M414.904 112.638c.816 0 1.578.025 2.328.072.753.05 1.515.099 2.289.147.103.004.22.006.332.006.741 0 .984-.12 1.017-.138-.007-.008.167-.327.167-1.395a320.8 320.8 0 01-.219-6.997l-.097-4.688-.049-2.331a62.85 62.85 0 01-.073-3.423v-3.4c0-.22.019-.509.144-.784a1.37 1.37 0 01.323-.507l1.197-.254c.513.016.947.262 1.19.671.202.302.575.865 1.12 1.689.561.854 1.232 1.862 2.014 3.028a401.593 401.593 0 012.54 3.851 539.18 539.18 0 002.638 4.014 94.376 94.376 0 002.431 3.505c.767 1.052 1.417 1.891 1.931 2.495a32.957 32.957 0 003.581 3.855c.19.189.383.323.62.441.233.117.379.141.461.141 2.115.097 4.201.146 6.252.146h6.179c.108 0 .198-.003.272-.007.006-.09.01-.205.01-.348a203.884 203.884 0 01-.073-5.521c0-1.794-.049-3.632-.144-5.462-.1-2.751-.185-5.459-.258-8.144a898.801 898.801 0 00-.256-8.033c0-1.07.012-2.247.036-3.571l.044-2.358.03-1.663c.023-1.364.048-2.705.073-4.022.024-1.308.036-2.471.036-3.489 0-.951-.097-1.367-.149-1.522-.154-.052-.571-.149-1.521-.149a59.03 59.03 0 00-4.13-.001c-1.357.049-2.748.122-4.13.218-.603.029-.914.096-1.059.14-.021.144-.066.517-.032 1.264.049 1.632.085 3.392.111 5.3.023 1.897.061 3.806.11 5.726.048 1.932.084 3.849.109 5.754.024 1.894.061 3.643.109 5.245 0 .583-.024 1.228-.074 2.006-.036.53-.144 2.133-1.471 2.133-.638 0-1.193-.444-1.829-1.111-.5-.524-.927-.985-1.279-1.386a71.07 71.07 0 01-4.517-5.838 279.694 279.694 0 01-4.274-6.313 254.787 254.787 0 01-4.092-6.425 130.68 130.68 0 00-3.929-6.018c-.237-.302-.486-.557-.705-.709-.003-.002-.113-.071-.46-.071-.077 0-.158.003-.243.009a58.652 58.652 0 01-3.42.102c-.564 0-1.123-.009-1.679-.026a86.639 86.639 0 00-2.485-.035c-.859 0-1.743.012-2.654.035l-.124.003-.033-.006v1.529c0 .835-.013 1.877-.037 3.128a177.962 177.962 0 00-.036 3.599c0 1.18.024 2.62.073 4.282 0 1.76-.024 3.542-.073 5.326a92.097 92.097 0 000 5.203c.096 3.232.121 6.545.073 9.846-.049 3.213 0 6.512.145 9.807.001.516-.03.898-.094 1.216 0 0-.017.105.038.362.692-.115 1.4-.169 2.153-.169.264 0 .534.006.812.019.504.024.974.036 1.412.036.43 0 .828-.012 1.194-.035zM382.241 112.855c1.515 0 3.13.011 4.842.037l5.191.072c1.748.025 3.363.037 4.846.037h3.803c1.086 0 1.549-.028 1.735-.047.017-.015.059-.048.116-.105a.065.065 0 00.008-.009c.044-1.332.054-2.782.031-4.346a81.527 81.527 0 00-.18-4.47c-.026-.476-.095-.71-.133-.807a2.079 2.079 0 00-.441-.038c-.182 0-.386.013-.611.039l-.061.006H383.557c-1.578 0-2.566-.968-2.642-2.591l-.001-4.812c0-.772.012-.575.038-1.004.04-.662.229-1.193.565-1.576.373-.425.939-.662 1.684-.705a36.343 36.343 0 011.891-.039c.755.05 2.1.075 2.79.075.691 0 1.398-.025 2.101-.072a1.54 1.54 0 00.267-.02c.004-.021.01-.051.013-.09a2.435 2.435 0 01-.022-.81 2.73 2.73 0 00.026-.387c0-.614.012-3.989.038-4.399.02-.318-.025-.449-.034-.472-.002.006-.01.009-.024.009-.071 0-.318-.071-.866-.117a9.44 9.44 0 00-.833-.033c-.328 0-.693.012-1.097.035-.307.018-.593.026-.856.026-.534 0-1.633-.035-2.016-.106a23.145 23.145 0 01-1.473-.149c-.614-.087-1.091-.325-1.416-.707-.284-.33-.469-.78-.546-1.334-.051-.35-.102-.055-.153-.669-.061-.549-.07-.242-.024-.505.001-.006.021-.161.021-.763a36.934 36.934 0 01-.074-2.01c0-.743.193-1.335.575-1.762.376-.427.948-.686 1.695-.765.513-.053 1.203-.08 2.055-.08 2.406-.048 4.75-.073 6.946-.073 2.242 0 4.572-.024 6.924-.073.657 0 1.292-.034 1.912-.103.622-.07 1.256-.149 1.902-.241v-3.886c0-1.449-.024-2.838-.072-4.127-.009-.164-.047-.248-.06-.263-.017-.015-.128-.06-.37-.06h-2.632c-1.313 0-2.879.013-4.702.037-1.831.025-3.847.036-6.046.036h-12.54c-1.976 0-3.556-.025-4.832-.074a6.966 6.966 0 00-.313-.007c-.362 0-.573.033-.684.06-.057.19-.12.546-.12 1.18 0 .256.01.503.032.737.028.308.041.597.041.872.097 1.8.183 3.644.255 5.476.074 1.834.111 3.706.111 5.565 0 1.078-.012.931-.037 2.425l-.008.499-.065 6.608a537.366 537.366 0 01-.079 3.734h.093l-.051.375c-.049 1.114-.085 1.54-.11 2.58a140.093 140.093 0 00-.036 3.228 164.435 164.435 0 00-.073 4.826v4.826c0 .617.068.902.103 1.011.088.028.38.116 1.042.15l3.424.146a41.86 41.86 0 003.344 0zM472.6 112.855c1.515 0 3.13.011 4.842.037l5.191.072c1.748.025 3.363.037 4.846.037h3.803c1.086 0 1.549-.028 1.735-.047.017-.015.059-.048.116-.105a.065.065 0 00.008-.009c.044-1.332.054-2.782.031-4.346a81.527 81.527 0 00-.18-4.47c-.026-.476-.095-.71-.133-.807a2.079 2.079 0 00-.441-.038c-.182 0-.386.013-.611.039l-.061.006H473.916c-1.578 0-2.566-.968-2.642-2.591l-.001-4.812c0-.772.012-.575.038-1.004.04-.662.229-1.193.565-1.576.373-.425.939-.662 1.684-.705a36.343 36.343 0 011.891-.039c.755.05 2.1.075 2.79.075.691 0 1.398-.025 2.101-.072a1.54 1.54 0 00.267-.02c.004-.021.01-.051.013-.09a2.435 2.435 0 01-.022-.81 2.73 2.73 0 00.026-.387c0-.614.012-3.989.038-4.399.02-.318-.025-.449-.034-.472-.002.006-.01.009-.024.009-.071 0-.318-.071-.866-.117a9.44 9.44 0 00-.833-.033c-.328 0-.693.012-1.097.035-.307.018-.593.026-.856.026-.534 0-1.633-.035-2.016-.106a23.145 23.145 0 01-1.473-.149c-.614-.087-1.091-.325-1.416-.707-.284-.33-.469-.78-.546-1.334-.051-.35-.102-.055-.153-.669-.061-.549-.07-.242-.024-.505.001-.006.021-.161.021-.763a36.934 36.934 0 01-.074-2.01c0-.743.193-1.335.575-1.762.376-.427.948-.686 1.695-.765.513-.053 1.203-.08 2.055-.08 2.406-.048 4.75-.073 6.946-.073 2.242 0 4.572-.024 6.924-.073.657 0 1.292-.034 1.912-.103.622-.07 1.256-.149 1.902-.241v-3.886c0-1.449-.024-2.838-.072-4.127-.009-.164-.047-.248-.06-.263-.017-.015-.128-.06-.37-.06h-2.632c-1.313 0-2.879.013-4.702.037-1.831.025-3.847.036-6.046.036h-12.54c-1.976 0-3.556-.025-4.832-.074a6.966 6.966 0 00-.313-.007c-.362 0-.573.033-.684.06-.057.19-.12.546-.12 1.18 0 .256.01.503.032.737.028.308.041.597.041.872.097 1.8.183 3.644.255 5.476.074 1.834.111 3.706.111 5.565 0 1.078-.012.931-.037 2.425l-.008.499-.065 6.608a537.366 537.366 0 01-.079 3.734h.093l-.051.375c-.049 1.114-.085 1.54-.11 2.58a140.093 140.093 0 00-.036 3.228 164.435 164.435 0 00-.073 4.826v4.826c0 .617.068.902.103 1.011.088.028.38.116 1.042.15l3.424.146a41.86 41.86 0 003.344 0zM512.88 83.726a28.637 28.637 0 00-.073 2.013v2.998c0 1.45.928 2.35 2.423 2.35h.055l.055-.005a38.703 38.703 0 012.807-.178 39.487 39.487 0 002.97-.188 12.465 12.465 0 003.144-.889c1.039-.45 1.987-1.128 2.818-2.015a5.5 5.5 0 001.336-2.653 7.063 7.063 0 000-2.903 6.162 6.162 0 00-1.205-2.581 4.532 4.532 0 00-2.409-1.587c-2.91-.727-5.792-1.094-8.58-1.094-.495 0-.989.012-1.481.034l-.156.008-.147.05c-.362.122-.688.375-.997.773-.313.402-.473.788-.486 1.174a33.069 33.069 0 00-.074 2.392zM530 113.294c-.374 0-.498-.064-.5-.064-.08-.066-.243-.233-.461-.583a346.6 346.6 0 01-2.991-5.664 161.606 161.606 0 00-3.129-5.78c-.21-.365-.418-.704-.625-1.015l-.559-.837c-.419-.756-1.264-1.631-2.922-1.631-.475 0-.921-.032-1.326-.096a10.787 10.787 0 00-1.672-.123 5.464 5.464 0 00-.398-.013c-.847 0-1.444.165-1.876.519-.724.59-.808 1.669-.808 2.429l.293 11.435c.039.566-.023.779-.039.823h-.001c-.017 0-.169.098-.57.19l-.083.019-.08.031a1.073 1.073 0 01-.398.068h-.809c-1.281 0-2.527.011-3.734.036a183.28 183.28 0 01-3.687.037c-.367 0-.708-.012-1.026-.034a22.885 22.885 0 01-1.045-.104c-.354-.041-.453-.136-.515-.483a25.264 25.264 0 00-.182-1.205 5.807 5.807 0 01-.095-1.016c.05-1.941.074-3.918.074-5.849 0-1.947.049-3.896.144-5.794.051-1.908.075-3.751.075-5.502V87.64c.048-2.953.048-5.954 0-8.902a543.606 543.606 0 01-.073-8.866c0-.684.066-1.023.11-1.171.127-.031.389-.072.872-.072.136 0 .282.003.437.01l6.221.001c1.18-.049 2.167-.099 3.005-.148a85.75 85.75 0 012.535-.108c.28-.008.552-.012.813-.012.513 0 .992.015 1.421.046 2.647.099 5.277.246 7.855.438 2.483.186 4.967.775 7.382 1.751a15.745 15.745 0 013.193 1.801 9.75 9.75 0 012.363 2.53c1.051 1.554 1.784 3.191 2.191 4.881.408 1.706.547 3.409.412 5.062a17.236 17.236 0 01-1.1 4.808 16.406 16.406 0 01-2.328 4.145c-.393.47-.913.926-1.523 1.325-.706.463-1.398.911-2.076 1.347-.619.387-1.001.829-1.157 1.343-.168.564-.041 1.189.378 1.859.816 1.392 1.66 2.8 2.518 4.196.853 1.39 1.72 2.793 2.598 4.208.33.52.733 1.232 1.205 2.127.499.95.945 1.697 1.362 2.276.179.33.134.546.057.73a.311.311 0 01-.009.024 4.823 4.823 0 01-.471.025 50.219 50.219 0 00-4.675-.072c-1.504.048-3.042.072-4.571.072M566.696 82.73c-.735 0-1.307.46-1.42 1.145l-.031.061-.033.127a860.524 860.524 0 00-1.611 4.722c-.537 1.582-1.072 3.152-1.607 4.71a30.564 30.564 0 00-.535 1.719c-.196.732-.109 1.326.257 1.764.336.408.87.617 1.581.617h1.613l.043-.003c.626-.048 1.145-.084 1.556-.11l1.307-.071c.483-.026.878-.064 1.204-.116.864-.069 1.325-.462 1.56-.783.245-.333.489-.921.262-1.828a991.53 991.53 0 00-1.202-5.177c-.415-1.753-.817-3.48-1.206-5.184l-.029-.105a3.717 3.717 0 00-.306-.67 1.583 1.583 0 00-1.403-.818m15.632 30.428c-.735 0-1.469-.015-2.204-.046a52.601 52.601 0 00-5.302.038 2.712 2.712 0 01-.423-.03 6.938 6.938 0 01-.169-.969 30.877 30.877 0 00-1.194-6.575c-.284-1.299-1.16-1.571-1.527-1.628a6.918 6.918 0 00-1.01-.087 98.766 98.766 0 00-5.294.001l-5.196.146c-.66 0-1.218.208-1.626.617-.329.328-.571.76-.721 1.283a55.737 55.737 0 01-.902 3.107 55.245 55.245 0 00-.932 3.205c-.091.334-.177.504-.225.581-.08.021-.261.054-.606.054h-5.922c-1.258 0-2.406-.011-3.447-.035l-1.611-.037a1.483 1.483 0 01-.264-.046c.009-.065.03-.166.081-.312a223.59 223.59 0 012.99-8.683 5869.48 5869.48 0 013.088-9.809 905.141 905.141 0 013.14-9.75l1.25-4.119c.487-1.608.963-3.165 1.426-4.676.46-1.505.861-2.793 1.203-3.862.429-1.359.523-1.602.538-1.637l.044-.087.008-.051c.152-.508.267-.916.343-1.221.007-.032.016-.057.022-.075a1.45 1.45 0 01.221-.044c.218-.029.646-.063 1.424-.063.581 0 1.562.012 2.943.035 1.393.026 2.863.037 4.405.037h7.495c.213-.009.355-.014.486-.014.298 0 .471.022.563.04.058.111.165.362.286.875.384 1.583.738 3.146 1.055 4.654.318 1.52.677 3.106 1.068 4.713.826 3.506 1.656 6.97 2.486 10.383.828 3.412 1.656 6.847 2.485 10.307.39 1.564.767 3.13 1.131 4.707.367 1.591.746 3.169 1.138 4.735a201.127 201.127 0 00.878 3.657c.094.362.051.492.047.502-.003 0-.066.051-.255.095h-.4a54.927 54.927 0 01-3.014.084M598.172 112.943a4.24 4.24 0 01-.222-.006 4.775 4.775 0 01-.074-.65 580.706 580.706 0 01-.073-9.073c0-2.997-.024-6.078-.072-9.157a335.52 335.52 0 01-.11-5.662 129.913 129.913 0 00-.184-5.717 25.512 25.512 0 01-.071-1.582c0-.634-.164-1.147-.486-1.524-.347-.405-.876-.633-1.574-.678a32.77 32.77 0 00-1.826-.039h-7.532c-.483 0-.856-.02-1.109-.059a.993.993 0 01-.17-.04c-.002-.013-.012-.043-.023-.086-.041-.165-.102-.486-.153-1.073a87.518 87.518 0 01-.18-4.343 260.91 260.91 0 01-.036-4.406c0-.033.002-.06.003-.083.1-.035.216-.052.352-.052a701.443 701.443 0 0117.476-.219c5.753 0 11.621.098 17.438.291.563.034 1.016.175 1.322.418.161.129.354.343.389.822a88.1 88.1 0 01.18 4.29c.024 1.445.061 2.877.111 4.297l-.001.039h-.019c-.046 0-.096-.003-.148-.009l-2.909-.151a55.86 55.86 0 00-2.836-.075 111.357 111.357 0 00-5.732.001c-1.104.078-1.685.284-2.054.713-.346.406-.487.985-.487 2.003v3.656c0 1.604-.012 3.404-.036 5.396a252.638 252.638 0 000 6.279c.023 2.15.023 4.232 0 6.188a410.978 410.978 0 00-.037 5.388v3.583c0 .659-.069.964-.108 1.084-.093.026-.405.115-1.106.15h-.184c-1.164 0-2.361.012-3.55.035a192.55 192.55 0 01-3.743.037 8.22 8.22 0 01-.426.014M645.573 77.904c-2.383 0-4.43.495-6.084 1.47-1.615.953-2.937 2.156-3.927 3.573a15.416 15.416 0 00-2.167 4.529c-.462 1.597-.722 3.089-.774 4.435-.059.986.172 2.094.709 3.362.511 1.213 1.298 2.383 2.337 3.476 1.036 1.089 2.319 2.025 3.811 2.783 1.539.783 3.294 1.18 5.218 1.18 2.134 0 4.016-.455 5.593-1.351 1.526-.868 2.823-1.953 3.857-3.225a13.39 13.39 0 002.309-4.145c.501-1.473.754-2.872.754-4.158 0-.599-.013-1.082-.039-1.435a6.057 6.057 0 00-.139-.95 21.956 21.956 0 00-.157-.588 5.503 5.503 0 01-.119-.57c-.187-.946-.65-1.874-1.422-2.873a15.245 15.245 0 00-2.601-2.604 15.838 15.838 0 00-3.379-2.045c-1.285-.574-2.556-.864-3.78-.864m.294 35.755c-2.894 0-5.499-.364-7.743-1.081-2.254-.719-4.25-1.657-5.936-2.789-1.684-1.131-3.131-2.414-4.3-3.813-1.196-1.43-2.19-2.848-2.954-4.217-.766-1.367-1.338-2.638-1.702-3.781-.362-1.128-.567-2.024-.609-2.662a207.555 207.555 0 00-.332-3.977 13.966 13.966 0 01.171-3.725c.461-2.255 1.253-4.524 2.349-6.718a24.165 24.165 0 014.196-5.944c1.691-1.76 3.725-3.276 6.045-4.504 2.303-1.221 4.926-2.004 7.794-2.328a16.937 16.937 0 015.07.066c1.696.278 3.385.727 5.024 1.335 2.75 1.054 5.103 2.555 6.983 4.456 1.891 1.916 3.463 4.277 4.672 7.017.667 1.524 1.3 3.059 1.882 4.559.525 1.356.746 2.875.658 4.513a54.4 54.4 0 01-1.07 6.316 25.364 25.364 0 01-2.066 5.71 22.418 22.418 0 01-3.415 4.947c-1.353 1.49-3.02 2.807-4.958 3.915a21.063 21.063 0 01-4.726 2.016 18.351 18.351 0 01-5.033.689M685.263 83.725c-.049.682-.074 1.36-.074 2.014v2.998c0 1.45.929 2.35 2.423 2.35h.055l.055-.005a38.668 38.668 0 012.807-.178 39.48 39.48 0 002.971-.188 12.47 12.47 0 003.143-.889c1.038-.449 1.986-1.127 2.818-2.015a5.494 5.494 0 001.336-2.654 7.058 7.058 0 000-2.902 6.142 6.142 0 00-1.204-2.581 4.54 4.54 0 00-2.408-1.587c-2.911-.727-5.793-1.094-8.582-1.094-.495 0-.989.012-1.48.034l-.155.008-.147.049c-.364.122-.692.376-.999.776-.313.399-.473.785-.486 1.173a34.485 34.485 0 00-.073 2.391zm17.119 29.569c-.374 0-.498-.064-.5-.064-.079-.066-.243-.234-.459-.582a330.978 330.978 0 01-2.993-5.665 159.545 159.545 0 00-3.13-5.78 17.794 17.794 0 00-.624-1.015l-.558-.837c-.42-.756-1.265-1.631-2.923-1.631-.475 0-.922-.032-1.326-.096a10.787 10.787 0 00-1.672-.123 5.455 5.455 0 00-.397-.013c-.848 0-1.445.165-1.877.519-.724.592-.808 1.67-.808 2.429l.293 11.435c.039.566-.023.779-.039.824v-.001c-.018 0-.171.098-.57.19l-.084.019-.08.031a1.071 1.071 0 01-.397.068h-.81c-1.28 0-2.526.011-3.733.036-1.194.024-2.423.037-3.688.037-.365 0-.708-.012-1.026-.034a22.885 22.885 0 01-1.045-.104c-.353-.041-.453-.135-.514-.482a26.32 26.32 0 00-.183-1.206 5.751 5.751 0 01-.094-1.016c.049-1.951.073-3.929.073-5.849 0-1.951.049-3.9.145-5.793.05-1.94.075-3.782.075-5.503V87.64a281.03 281.03 0 000-8.902 535.419 535.419 0 01-.073-8.866c0-.685.066-1.023.109-1.171.127-.031.389-.072.872-.072.137 0 .283.003.438.01l6.22.001c1.181-.049 2.167-.099 3.006-.148a85.61 85.61 0 012.533-.108c.281-.008.553-.012.814-.012.513 0 .992.015 1.421.046 2.648.099 5.279.246 7.855.438 2.483.186 4.967.775 7.382 1.751a15.724 15.724 0 013.193 1.801 9.694 9.694 0 012.362 2.53c1.052 1.554 1.786 3.191 2.191 4.881.409 1.703.548 3.406.413 5.062a17.27 17.27 0 01-1.099 4.808 16.361 16.361 0 01-2.329 4.145 6.914 6.914 0 01-1.523 1.325c-.705.463-1.397.911-2.076 1.347-.619.387-1.001.829-1.157 1.343-.168.568-.04 1.192.379 1.86a228.024 228.024 0 002.517 4.195c.853 1.39 1.72 2.793 2.598 4.208.326.513.729 1.225 1.205 2.127.49.934.949 1.7 1.362 2.276.179.33.134.545.058.729l-.01.025a4.806 4.806 0 01-.471.025 50.219 50.219 0 00-4.675-.072c-1.504.048-3.042.072-4.571.072" fill="#d3635f"/><path d="M199.711 114.177a272.937 272.937 0 01-7.144-4.275l1.305 4.043c1.467.882 2.949 1.759 4.455 2.629 9.098 5.253 18.26 9.846 27.114 13.673l1.812-2.229c-8.966-3.844-18.279-8.493-27.542-13.841M146.15 39.972c-5.151.939-8.74 3.057-10.654 6.371-7.714 13.361 15.949 41.223 54.633 65.313l-1.736-4.392c-34.496-22.257-57.029-48.227-50.5-59.536 1.634-2.829 4.9-4.278 8.421-4.977-.158-.552-.27-1.124-.27-1.728 0-.36.048-.707.106-1.051m50.032 13.11l1.764-2.247c-14.733-6.151-28.469-10.071-39.417-11.131a6.3 6.3 0 01.143 1.319c0 .51-.076.999-.19 1.474 10.473 1.032 23.572 4.736 37.7 10.585m30.167 14.957a264.427 264.427 0 017.185 4.308l-2.079-4.493c-1.235-.739-2.457-1.482-3.721-2.212-9.033-5.215-18.129-9.783-26.923-13.593l-1.916 2.186c8.939 3.837 18.222 8.474 27.454 13.804m11.217 6.884c.765.494 1.557.98 2.312 1.478v-3.336c-1.308-.846-2.661-1.681-4.005-2.518zm40.023 28.853l-1.501 2.569c10.658 11.716 15.593 22.056 12.079 28.143-2.652 4.592-9.603 5.557-14.968 5.557h-.004c-11.103-.001-26.329-3.908-42.959-10.759l-1.962 2.162c17.334 7.221 33.293 11.364 44.921 11.365h.004c8.863 0 14.706-2.335 17.365-6.941 4.235-7.335-1.001-19.043-12.975-32.096" fill="#5772b7"/><path d="M239.942 81.42c-.021-2.751-.028-5.503-.035-8.254-7.211-19.208-16.046-36.68-25.248-49.821C204.116 8.29 193.806 0 185.626 0c-1.305 0-2.568.207-3.755.615-9.812 3.379-13.601 20.168-11.476 43.782l2.96.721c-2.183-22.572.87-38.942 9.417-41.885a8.731 8.731 0 012.854-.465c15.228 0 39.05 34.518 54.316 78.652m10.673 88.932c-1.675 4.519-4.113 7.525-7.327 8.632a8.749 8.749 0 01-2.851.465h-.002c-15.274-.004-39.19-34.717-54.449-79.029-6.426-18.664-10.549-36.835-12.319-52.353l-2.982-.797c1.703 15.819 5.932 34.443 12.684 54.051 7.653 22.226 17.609 42.665 28.033 57.55 10.541 15.053 20.852 23.344 29.032 23.346h.003c1.303 0 2.565-.207 3.752-.616 4.054-1.396 7.063-5.11 9.068-10.617a6.25 6.25 0 01-1.463-.191 6.319 6.319 0 01-1.179-.441m1.75-36.465l2.96.582c-.768-6.954-2.021-14.442-3.761-22.315l.009.205c.01.139.014.251.015.341a8.005 8.005 0 01-.575.089c-.75.088-1.483.132-2.183.136 1.598 7.353 2.776 14.392 3.535 20.962m3.436 24.99c.611-6.134.571-13.253-.146-21.159l-2.96-.751c.786 8.05.893 15.293.337 21.445.651-.038 1.313-.006 1.977.169.279.073.533.189.792.296" fill="#5772b7"/><path d="M204.624 148.237l1.497 2.466c11.406-10.782 23.241-24.296 34.385-39.633 16.17-22.257 28.624-45.202 35.066-64.608 2.014-6.068 3.356-11.579 4.046-16.474-.377.07-.762.117-1.159.117-.563 0-1.1-.098-1.62-.236-.677 4.658-1.973 9.932-3.895 15.721-6.354 19.143-18.67 41.82-34.678 63.852-10.814 14.885-22.439 28.155-33.642 38.795m-41.216-35.873c-1.091.125-2.172.229-3.252.319-4.617 9.324-8.264 18.252-10.717 26.382-5.461 18.098-4.557 30.907 2.545 36.066 2.251 1.637 5.048 2.466 8.312 2.466h.001c10.946 0 26.73-9.318 43.629-24.847l-1.609-2.352c-16.446 15.166-31.782 24.432-42.021 24.431-2.667 0-4.916-.652-6.686-1.937-9.544-6.934-5.026-31.148 9.798-60.528m8.415-17.74a13.49 13.49 0 00.394-3.607c-2.054 3.329-4 6.644-5.85 9.932.519-.31 1.031-.643 1.531-1.014a15.948 15.948 0 002.369-2.212c.748-.862 1.271-1.905 1.556-3.099m49.616-60.649l-1.469-2.492c-11.415 10.787-23.262 24.311-34.416 39.663a326.226 326.226 0 00-3.913 5.52l1.317 2.962a323.09 323.09 0 014.836-6.856c10.815-14.886 22.442-28.156 33.645-38.797m58.316-16.363c-.769-4.75-2.65-8.329-5.678-10.528-2.252-1.636-5.049-2.466-8.313-2.466-10.967 0-26.789 9.353-43.725 24.934l1.484 2.469c16.528-15.287 31.956-24.635 42.241-24.635 2.667 0 4.917.652 6.686 1.938 2.338 1.698 3.837 4.544 4.517 8.349a6.283 6.283 0 011.492-.197c.445 0 .877.049 1.296.136" fill="#5772b7"/><path d="M278.459 28.237a4.447 4.447 0 100-8.894 4.447 4.447 0 000 8.894M152.358 45.47a4.447 4.447 0 100-8.894 4.447 4.447 0 000 8.894M252.269 168.987a4.446 4.446 0 102.264-8.6 4.446 4.446 0 00-2.264 8.6" fill="#d3635f"/></svg>